<mxfile host="app.diagrams.net" modified="2021-08-07T13:15:12.102Z" agent="5.0 (Macintosh; Intel Mac OS X 10_15_7) AppleWebKit/537.36 (KHTML, like Gecko) Chrome/92.0.4515.107 Safari/537.36" etag="Sgmec8b34bnPK1p2v3wQ" version="14.9.5" type="github">
  <diagram name="Page-1" id="c37626ed-c26b-45fb-9056-f9ebc6bb27b6">
    <mxGraphModel dx="1426" dy="738" grid="1" gridSize="10" guides="1" tooltips="1" connect="1" arrows="1" fold="1" page="1" pageScale="1" pageWidth="413" pageHeight="583" background="#F4F1DE" math="0" shadow="0">
      <root>
        <mxCell id="0" />
        <mxCell id="1" parent="0" />
        <mxCell id="ugERCl2SqNYuA84HWqpH-1" value="유스케이스 다이어그램" style="rounded=0;whiteSpace=wrap;html=1;fillColor=#F2CC8F;strokeColor=#E07A5F;fontColor=#393C56;" vertex="1" parent="1">
          <mxGeometry x="200" y="130" width="130" height="50" as="geometry" />
        </mxCell>
        <mxCell id="ugERCl2SqNYuA84HWqpH-3" value="클래스 다이어그램" style="rounded=0;whiteSpace=wrap;html=1;fillColor=#F2CC8F;strokeColor=#E07A5F;fontColor=#393C56;" vertex="1" parent="1">
          <mxGeometry x="350" y="130" width="130" height="50" as="geometry" />
        </mxCell>
        <mxCell id="ugERCl2SqNYuA84HWqpH-4" value="시퀀스 다이어그램&amp;nbsp;" style="rounded=0;whiteSpace=wrap;html=1;fillColor=#F2CC8F;strokeColor=#E07A5F;fontColor=#393C56;" vertex="1" parent="1">
          <mxGeometry x="510" y="130" width="130" height="50" as="geometry" />
        </mxCell>
        <mxCell id="ugERCl2SqNYuA84HWqpH-5" value="" style="endArrow=none;html=1;exitX=0.75;exitY=0;exitDx=0;exitDy=0;edgeStyle=elbowEdgeStyle;labelBackgroundColor=#F4F1DE;strokeColor=#E07A5F;fontColor=#393C56;" edge="1" parent="1" source="ugERCl2SqNYuA84HWqpH-1">
          <mxGeometry width="50" height="50" relative="1" as="geometry">
            <mxPoint x="310" y="150" as="sourcePoint" />
            <mxPoint x="360" y="100" as="targetPoint" />
          </mxGeometry>
        </mxCell>
        <mxCell id="ugERCl2SqNYuA84HWqpH-11" style="edgeStyle=elbowEdgeStyle;rounded=0;orthogonalLoop=1;jettySize=auto;html=1;labelBackgroundColor=#F4F1DE;strokeColor=#E07A5F;fontColor=#393C56;" edge="1" parent="1" source="ugERCl2SqNYuA84HWqpH-7" target="ugERCl2SqNYuA84HWqpH-4">
          <mxGeometry relative="1" as="geometry" />
        </mxCell>
        <mxCell id="ugERCl2SqNYuA84HWqpH-7" value="UML 다이어그램" style="rounded=0;whiteSpace=wrap;html=1;fillColor=#f8cecc;strokeColor=#b85450;" vertex="1" parent="1">
          <mxGeometry x="350" y="50" width="130" height="50" as="geometry" />
        </mxCell>
        <mxCell id="ugERCl2SqNYuA84HWqpH-8" value="" style="endArrow=none;html=1;exitX=0.5;exitY=0;exitDx=0;exitDy=0;entryX=0.5;entryY=1;entryDx=0;entryDy=0;edgeStyle=elbowEdgeStyle;labelBackgroundColor=#F4F1DE;strokeColor=#E07A5F;fontColor=#393C56;" edge="1" parent="1" source="ugERCl2SqNYuA84HWqpH-3" target="ugERCl2SqNYuA84HWqpH-7">
          <mxGeometry width="50" height="50" relative="1" as="geometry">
            <mxPoint x="383.75" y="160" as="sourcePoint" />
            <mxPoint x="446.25" y="100" as="targetPoint" />
          </mxGeometry>
        </mxCell>
        <mxCell id="ugERCl2SqNYuA84HWqpH-15" style="edgeStyle=elbowEdgeStyle;rounded=0;orthogonalLoop=1;jettySize=auto;html=1;labelBackgroundColor=#F4F1DE;strokeColor=#E07A5F;fontColor=#393C56;" edge="1" parent="1" source="ugERCl2SqNYuA84HWqpH-12" target="ugERCl2SqNYuA84HWqpH-13">
          <mxGeometry relative="1" as="geometry" />
        </mxCell>
        <mxCell id="ugERCl2SqNYuA84HWqpH-16" style="edgeStyle=elbowEdgeStyle;rounded=0;orthogonalLoop=1;jettySize=auto;html=1;entryX=0.667;entryY=0;entryDx=0;entryDy=0;entryPerimeter=0;labelBackgroundColor=#F4F1DE;strokeColor=#E07A5F;fontColor=#393C56;" edge="1" parent="1" source="ugERCl2SqNYuA84HWqpH-12" target="ugERCl2SqNYuA84HWqpH-14">
          <mxGeometry relative="1" as="geometry" />
        </mxCell>
        <mxCell id="ugERCl2SqNYuA84HWqpH-12" value="요구사항 분석" style="rounded=0;whiteSpace=wrap;html=1;fillColor=#f8cecc;strokeColor=#b85450;" vertex="1" parent="1">
          <mxGeometry x="310" y="220" width="120" height="60" as="geometry" />
        </mxCell>
        <mxCell id="ugERCl2SqNYuA84HWqpH-13" value="자료흐름도(DFD)&lt;br&gt;자료 사전(DD)" style="rounded=0;whiteSpace=wrap;html=1;fillColor=#F2CC8F;strokeColor=#E07A5F;fontColor=#393C56;" vertex="1" parent="1">
          <mxGeometry x="205" y="300" width="120" height="60" as="geometry" />
        </mxCell>
        <mxCell id="ugERCl2SqNYuA84HWqpH-14" value="CASE, HIPO" style="rounded=0;whiteSpace=wrap;html=1;fillColor=#F2CC8F;strokeColor=#E07A5F;fontColor=#393C56;" vertex="1" parent="1">
          <mxGeometry x="360" y="300" width="120" height="60" as="geometry" />
        </mxCell>
        <mxCell id="ugERCl2SqNYuA84HWqpH-23" style="edgeStyle=orthogonalEdgeStyle;rounded=0;orthogonalLoop=1;jettySize=auto;html=1;curved=1;labelBackgroundColor=#F4F1DE;strokeColor=#E07A5F;fontColor=#393C56;" edge="1" parent="1" source="ugERCl2SqNYuA84HWqpH-17" target="ugERCl2SqNYuA84HWqpH-22">
          <mxGeometry relative="1" as="geometry" />
        </mxCell>
        <mxCell id="ugERCl2SqNYuA84HWqpH-24" style="edgeStyle=orthogonalEdgeStyle;rounded=0;orthogonalLoop=1;jettySize=auto;html=1;curved=1;labelBackgroundColor=#F4F1DE;strokeColor=#E07A5F;fontColor=#393C56;" edge="1" parent="1" source="ugERCl2SqNYuA84HWqpH-17" target="ugERCl2SqNYuA84HWqpH-19">
          <mxGeometry relative="1" as="geometry">
            <Array as="points">
              <mxPoint x="370" y="600" />
              <mxPoint x="267" y="600" />
            </Array>
          </mxGeometry>
        </mxCell>
        <mxCell id="ugERCl2SqNYuA84HWqpH-25" style="edgeStyle=elbowEdgeStyle;rounded=0;orthogonalLoop=1;jettySize=auto;html=1;labelBackgroundColor=#F4F1DE;strokeColor=#E07A5F;fontColor=#393C56;" edge="1" parent="1" source="ugERCl2SqNYuA84HWqpH-17" target="ugERCl2SqNYuA84HWqpH-20">
          <mxGeometry relative="1" as="geometry" />
        </mxCell>
        <mxCell id="ugERCl2SqNYuA84HWqpH-26" style="edgeStyle=elbowEdgeStyle;rounded=0;orthogonalLoop=1;jettySize=auto;html=1;entryX=0;entryY=0.25;entryDx=0;entryDy=0;labelBackgroundColor=#F4F1DE;strokeColor=#E07A5F;fontColor=#393C56;" edge="1" parent="1" source="ugERCl2SqNYuA84HWqpH-17" target="ugERCl2SqNYuA84HWqpH-21">
          <mxGeometry relative="1" as="geometry" />
        </mxCell>
        <mxCell id="ugERCl2SqNYuA84HWqpH-28" style="edgeStyle=elbowEdgeStyle;rounded=0;orthogonalLoop=1;jettySize=auto;html=1;entryX=1;entryY=0.5;entryDx=0;entryDy=0;labelBackgroundColor=#F4F1DE;strokeColor=#E07A5F;fontColor=#393C56;" edge="1" parent="1" source="ugERCl2SqNYuA84HWqpH-17" target="ugERCl2SqNYuA84HWqpH-27">
          <mxGeometry relative="1" as="geometry" />
        </mxCell>
        <mxCell id="ugERCl2SqNYuA84HWqpH-17" value="객체지향 분석 방법론" style="rounded=0;whiteSpace=wrap;html=1;fillColor=#f8cecc;strokeColor=#b85450;" vertex="1" parent="1">
          <mxGeometry x="350" y="450" width="120" height="60" as="geometry" />
        </mxCell>
        <mxCell id="ugERCl2SqNYuA84HWqpH-19" value="럼바우" style="rounded=0;whiteSpace=wrap;html=1;fillColor=#F2CC8F;strokeColor=#E07A5F;fontColor=#393C56;" vertex="1" parent="1">
          <mxGeometry x="270" y="560" width="120" height="60" as="geometry" />
        </mxCell>
        <mxCell id="ugERCl2SqNYuA84HWqpH-20" value="부치" style="rounded=0;whiteSpace=wrap;html=1;fillColor=#F2CC8F;strokeColor=#E07A5F;fontColor=#393C56;" vertex="1" parent="1">
          <mxGeometry x="350" y="640" width="120" height="60" as="geometry" />
        </mxCell>
        <mxCell id="ugERCl2SqNYuA84HWqpH-21" value="Jacobson" style="rounded=0;whiteSpace=wrap;html=1;fillColor=#F2CC8F;strokeColor=#E07A5F;fontColor=#393C56;" vertex="1" parent="1">
          <mxGeometry x="510" y="640" width="120" height="60" as="geometry" />
        </mxCell>
        <mxCell id="ugERCl2SqNYuA84HWqpH-22" value="Coad-Yourdon" style="rounded=0;whiteSpace=wrap;html=1;fillColor=#F2CC8F;strokeColor=#E07A5F;fontColor=#393C56;" vertex="1" parent="1">
          <mxGeometry x="480" y="560" width="120" height="60" as="geometry" />
        </mxCell>
        <mxCell id="ugERCl2SqNYuA84HWqpH-27" value="Wirfs-Brock" style="rounded=0;whiteSpace=wrap;html=1;fillColor=#F2CC8F;strokeColor=#E07A5F;fontColor=#393C56;" vertex="1" parent="1">
          <mxGeometry x="180" y="580" width="120" height="60" as="geometry" />
        </mxCell>
      </root>
    </mxGraphModel>
  </diagram>
</mxfile>
